# xmcd
#
# Track frame offsets: 
#        150
#        18629
#        43972
#        58439
#        73064
#        88847
#        103923
#        119823
#        135948
#        151998
#        170670
#        183865
#        206116
#        218099
#        235201
#        255498
#        281147
#        295540
#
# Disc length: 4149 seconds
#
# Revision: 3
# Processed by: cddbd v1.5.2PL0 Copyright (c) Steve Scherf et al.
# Submitted via: ExactAudioCopyFreeDBPlugin 1.0
#
DISCID=1d103312
DTITLE=Various Artist - Jazz Ladies Vol2 - Cd2 The Greatest Voices Of Our Tim
DTITLE=e
DYEAR=2001
DGENRE=Jazz
TTITLE0=Ella Fitzgerald and Oscar Peterson - Street Of Dreams
TTITLE1=Sarah Vaughan - I've Got The World On A String
TTITLE2=Helen Humes - You're Driving Me Crazy
TTITLE3=Betty Roché - Billie's Bounce
TTITLE4=Teri Thornton - My Old Flame
TTITLE5=Sylvia Syms With Kenny Burell - Meditation
TTITLE6=Ruth Price - Till The Clouds Roll By - Look For The Silver Lin
TTITLE6=ing
TTITLE7=Anita O'Day - Rules Of The Road
TTITLE8=Ithamara Koorax - Samba De Verão
TTITLE9=Claire Austin - Lover, Come Back To Me
TTITLE10=Abbey Lincoln - Exactly Like You
TTITLE11=Etta Jones - Easy Living
TTITLE12=Bev Kelly - Falling In Love With Love
TTITLE13=Ruth Brown - Salty Papa Blues
TTITLE14=Billie Poole - Stormy Weather
TTITLE15=Carol Sloane - Early Autumn
TTITLE16=Honi Gordon - Walkin'
TTITLE17=Ella Fitzgerald and Oscar Peterson - Mean To Me
EXTD=YEAR: 2001
EXTT0=
EXTT1=
EXTT2=
EXTT3=
EXTT4=
EXTT5=
EXTT6=
EXTT7=
EXTT8=
EXTT9=
EXTT10=
EXTT11=
EXTT12=
EXTT13=
EXTT14=
EXTT15=
EXTT16=
EXTT17=
PLAYORDER=
